<svg xmlns="http://www.w3.org/2000/svg" viewBox="0 0 256 256">
  <defs>
    <radialGradient id="bg" cx="50%" cy="38%" r="74%"><stop offset="0" stop-color="#4b552d"/><stop offset=".58" stop-color="#191c12"/><stop offset="1" stop-color="#050505"/></radialGradient>
    <linearGradient id="meat" x1="0" y1="0" x2="1" y2="1"><stop offset="0" stop-color="#f6b083"/><stop offset=".45" stop-color="#a23f2d"/><stop offset="1" stop-color="#4a1713"/></linearGradient>
    <filter id="s" x="-30%" y="-30%" width="160%" height="160%"><feDropShadow dx="0" dy="8" stdDeviation="7" flood-color="#000" flood-opacity=".65"/></filter>
  </defs>
  <rect width="256" height="256" rx="28" fill="url(#bg)"/>
  <path d="M22 26h212v204H22z" rx="22" fill="none" stroke="#9d7840" stroke-width="8"/>
  <g filter="url(#s)">
    <path d="M73 160c-19-23-15-56 12-78 29-24 70-26 94-1 22 23 16 57-11 79-30 24-72 26-95 0z" fill="url(#meat)" stroke="#170705" stroke-width="7"/>
    <path d="M105 126c5-20 29-38 51-35" stroke="#ffd3b7" stroke-width="8" stroke-linecap="round" opacity=".55"/>
    <path d="M54 180l34-34 24 24-34 34c-10 10-25 8-33 0s-2-14 9-24z" fill="#e9d8b9" stroke="#1a120b" stroke-width="7"/>
    <circle cx="55" cy="207" r="16" fill="#e9d8b9" stroke="#1a120b" stroke-width="7"/>
    <path d="M171 54c14 2 29 9 38 25-20 4-39-1-51-14-9 6-15 13-19 22" fill="#6e9f35" stroke="#14200b" stroke-width="6"/>
  </g>
</svg>
