<svg xmlns="http://www.w3.org/2000/svg" viewBox="0 0 256 256">
  <defs>
    <radialGradient id="bg" cx="50%" cy="38%" r="74%"><stop offset="0" stop-color="#513028"/><stop offset=".58" stop-color="#1b1210"/><stop offset="1" stop-color="#050505"/></radialGradient>
    <linearGradient id="bone" x1="0" y1="0" x2="1" y2="1"><stop offset="0" stop-color="#fff4d3"/><stop offset=".5" stop-color="#b8a27d"/><stop offset="1" stop-color="#5d513e"/></linearGradient>
    <filter id="s" x="-30%" y="-30%" width="160%" height="160%"><feDropShadow dx="0" dy="8" stdDeviation="7" flood-color="#000" flood-opacity=".65"/></filter>
  </defs>
  <rect width="256" height="256" rx="28" fill="url(#bg)"/>
  <path d="M22 26h212v204H22z" rx="22" fill="none" stroke="#9d7840" stroke-width="8"/>
  <g filter="url(#s)">
    <path d="M73 180l89-89 25 25-89 89c-12 12-31 10-40 1-10-10 3-14 15-26z" fill="url(#bone)" stroke="#17100b" stroke-width="7"/>
    <path d="M156 78c-1-24 20-43 45-41-2 27-18 47-43 51z" fill="#cfccb8" stroke="#17100b" stroke-width="7"/>
    <path d="M168 93c20-18 47-14 59 7-19 17-47 21-68 8z" fill="#cfccb8" stroke="#17100b" stroke-width="7"/>
    <path d="M74 156c-20-20-20-52-2-75 16 16 30 36 39 60z" fill="#8e2e24" stroke="#190807" stroke-width="7"/>
    <path d="M66 87c24 20 40 40 49 67" stroke="#f0a08a" stroke-width="5" opacity=".45"/>
  </g>
</svg>
